<svg width="109" height="108" viewBox="0 0 109 108" fill="none" xmlns="http://www.w3.org/2000/svg">
<path d="M19.0901 37.2499C29.2908 37.2499 37.5601 28.9806 37.5601 18.7799C37.5601 8.57924 29.2908 0.309937 19.0901 0.309937C8.88942 0.309937 0.620117 8.57924 0.620117 18.7799C0.620117 28.9806 8.88942 37.2499 19.0901 37.2499Z" fill="#B7DFB3"/>
<path d="M51.84 35.11C50.26 35.37 48.69 35.83 47.15 36.52C42.05 38.82 38.48 43.15 36.99 48.14C37.34 46.87 37.83 45.66 38.45 44.52C36.73 47.65 35.94 51.27 36.23 54.89C36.55 58.74 35.35 62.55 32.59 65.31L32.45 65.43C29.57 68.33 25.51 69.97 21.45 69.44C19.99 69.26 18.48 69.25 16.93 69.42C8.81001 70.33 2.13 76.7 0.860003 84.77C-1.11 97.23 9.39002 107.82 21.78 106.06C31.11 104.74 37.79 96.3 37.55 86.88C37.43 82.17 38.72 77.29 42.79 74.49C45.28 72.77 48.32 71.98 51.33 71.74C56.59 71.33 62.71 71.47 66.66 75.42L66.78 75.54C69.68 78.44 71.32 82.48 70.79 86.54C70.61 88 70.6 89.51 70.77 91.08C71.68 99.18 78.05 105.88 86.12 107.15C98.58 109.12 109.17 98.62 107.41 86.21C106.09 76.88 97.65 70.21 88.23 70.46L86.24 70.5H86.01C83.13 70.5 79.24 68.92 77.24 66.91C73.87 63.54 73.16 58.63 73.22 54.06C73.28 49.49 73.47 44.6 76.77 41.31C80.07 38.02 84.28 36.79 88.69 37.18C91.73 37.46 94.9 36.97 97.9 35.63C107.2 31.45 111.35 20.51 107.18 11.21C103 1.90998 92.06 -2.26002 82.74 1.92998C75.41 5.22998 71.28 12.71 71.91 20.3C72.23 24.15 71.01 27.95 68.27 30.71L68.13 30.85C65.23 33.75 61.19 35.39 57.13 34.86C55.67 34.68 54.16 34.67 52.61 34.84C48.29 35.33 44.38 37.35 41.5 40.36C43.05 38.8 44.91 37.48 47.06 36.51C48.62 35.81 50.22 35.33 51.84 35.1" fill="#0C160B"/>
</svg>
