<?xml version="1.0" encoding="UTF-8"?>
<svg id="Layer_3" data-name="Layer 3" xmlns="http://www.w3.org/2000/svg" viewBox="0 0 500 145.7">
  <defs>
    <style>
      .cls-1 {
        fill: #b7dfb3;
      }
    </style>
  </defs>
  <g>
    <path d="M89.64,50.55c2.11,0,3.88.73,5.29,2.19s2.11,3.33,2.11,5.61-.7,4.13-2.11,5.59-3.17,2.19-5.29,2.19h-35.03c-2.12,0-3.88-.73-5.29-2.19s-2.11-3.33-2.11-5.59.7-4.14,2.11-5.61,3.17-2.19,5.29-2.19h35.03ZM88.19,20.07c1.94,0,3.84.28,5.69.85,1.85.57,3.39,1.49,4.63,2.76,1.23,1.28,1.85,2.95,1.85,5.03,0,2.36-.64,4.23-1.92,5.61-1.27,1.37-2.75,2.05-4.43,2.05-.79,0-1.98-.21-3.57-.63s-3.13-.65-4.63-.65c-2.2,0-3.9.53-5.09,1.57s-2.01,2.24-2.44,3.61c-.45,1.37-.66,2.57-.66,3.61v72.43c0,2.47-.75,4.52-2.25,6.17-1.5,1.65-3.39,2.48-5.69,2.48s-4.19-.83-5.69-2.48c-1.5-1.65-2.24-3.7-2.24-6.17V44.03c0-6.71,2.2-12.39,6.61-17.02,4.41-4.63,11.02-6.94,19.83-6.94Z"/>
    <path d="M125.01,116.32c0,2.47-.77,4.52-2.31,6.17s-3.46,2.48-5.75,2.48-4.06-.83-5.55-2.48c-1.5-1.65-2.25-3.7-2.25-6.17V28.71c0-2.45.77-4.51,2.31-6.16s3.46-2.48,5.75-2.48,4.16.83,5.62,2.48c1.45,1.65,2.18,3.71,2.18,6.16v87.6Z"/>
    <path d="M211.77,87.12c0,7.75-1.61,14.58-4.83,20.49s-7.53,10.51-12.95,13.82c-5.42,3.31-11.48,4.96-18.18,4.96s-12.76-1.65-18.18-4.96c-5.42-3.31-9.74-7.91-12.96-13.82-3.22-5.91-4.83-12.74-4.83-20.49s1.61-14.57,4.83-20.49c3.22-5.89,7.54-10.53,12.96-13.89,5.42-3.35,11.47-5.03,18.18-5.03s12.75,1.68,18.18,5.03c5.42,3.36,9.74,7.99,12.95,13.89,3.22,5.92,4.83,12.74,4.83,20.49ZM195.91,87.12c0-4.82-.9-9-2.71-12.54-1.81-3.55-4.23-6.31-7.27-8.29-3.04-1.98-6.41-2.98-10.11-2.98s-7.07.99-10.11,2.98c-3.04,1.98-5.47,4.74-7.27,8.29-1.81,3.54-2.71,7.72-2.71,12.54s.9,8.86,2.71,12.4c1.81,3.55,4.23,6.31,7.27,8.29,3.04,1.98,6.41,2.98,10.11,2.98s7.07-.99,10.11-2.98,5.46-4.74,7.27-8.29c1.81-3.54,2.71-7.67,2.71-12.4Z"/>
    <path d="M307.62,49.13c2.03,0,3.79.83,5.29,2.48,1.5,1.65,2.25,3.76,2.25,6.31,0,.66-.04,1.25-.13,1.77-.09.52-.23,1.03-.4,1.49l-20.23,58.41c-.62,1.89-1.72,3.33-3.31,4.33s-3.26,1.35-5.02,1.06c-3-.18-5.24-1.98-6.74-5.39l-13.09-40.4,3.44.14-12.3,40.26c-1.5,3.4-3.74,5.2-6.74,5.39-1.67.29-3.33-.07-4.96-1.06s-2.75-2.43-3.37-4.33l-20.23-58.41c-.36-1.04-.53-2.12-.53-3.25,0-2.27.7-4.3,2.11-6.1,1.41-1.79,3.35-2.69,5.82-2.69,1.67,0,3.17.43,4.49,1.28,1.32.84,2.25,2.21,2.78,4.11l15.99,46.49-3.3-.28,12.03-35.01c1.41-3.5,3.84-5.25,7.27-5.25,1.94,0,3.42.45,4.43,1.35s1.83,2.19,2.45,3.9l12.03,35.01-3.96.57,16.26-46.78c1.05-3.59,3.61-5.39,7.67-5.39Z"/>
  </g>
  <g>
    <circle class="cls-1" cx="363.09" cy="37.78" r="18.47"/>
    <path d="M395.84,54.11c-1.58.26-3.15.72-4.69,1.41-5.1,2.3-8.67,6.63-10.16,11.62.35-1.27.84-2.48,1.46-3.62-1.72,3.13-2.51,6.75-2.22,10.37.32,3.85-.88,7.66-3.64,10.42l-.14.12c-2.88,2.9-6.94,4.54-11,4.01-1.46-.18-2.97-.19-4.52-.02-8.12.91-14.8,7.28-16.07,15.35-1.97,12.46,8.53,23.05,20.92,21.29,9.33-1.32,16.01-9.76,15.77-19.18-.12-4.71,1.17-9.59,5.24-12.39,2.49-1.72,5.53-2.51,8.54-2.75,5.26-.41,11.38-.27,15.33,3.68l.12.12c2.9,2.9,4.54,6.94,4.01,11-.18,1.46-.19,2.97-.02,4.54.91,8.1,7.28,14.8,15.35,16.07,12.46,1.97,23.05-8.53,21.29-20.94-1.32-9.33-9.76-16-19.18-15.75l-1.99.04h-.23c-2.88,0-6.77-1.58-8.77-3.59-3.37-3.37-4.08-8.28-4.02-12.85s.25-9.46,3.55-12.75,7.51-4.52,11.92-4.13c3.04.28,6.21-.21,9.21-1.55,9.3-4.18,13.45-15.12,9.28-24.42-4.18-9.3-15.12-13.47-24.44-9.28-7.33,3.3-11.46,10.78-10.83,18.37.32,3.85-.9,7.65-3.64,10.41l-.14.14c-2.9,2.9-6.94,4.54-11,4.01-1.46-.18-2.97-.19-4.52-.02-4.32.49-8.23,2.51-11.11,5.52,1.55-1.56,3.41-2.88,5.56-3.85,1.56-.7,3.16-1.18,4.78-1.41"/>
  </g>
</svg>